<svg id="Capa_1" data-name="Capa 1" xmlns="http://www.w3.org/2000/svg" viewBox="0 0 256 155.52"><defs><style>.cls-1{fill:#fff;}</style></defs><title>interbank1</title><path class="cls-1" d="M133.57,7.66c9.8,0,19.6,0,29.41,0,1.63,0,2.15.41,2.15,2.1-.06,19.54,0,39.08,0,58.62,0,5.86-3.93,9.84-9.77,9.85-19.6,0-39.2,0-58.8,0-1.45,0-2-.35-2-1.89,0-19.67,0-39.34,0-59,0-5.71,4-9.64,9.76-9.66C114.1,7.63,123.84,7.66,133.57,7.66Zm15,31.9c0-5.74,0-11.47,0-17.2,0-1.52-.31-1.94-1.93-1.63q-17,3.18-34,6.15c-1.34.24-1.76.75-1.76,2.07,0,11.4.06,22.8,0,34.2,0,1.68.54,2.05,2.09,1.76q16.91-3.1,33.83-6.11c1.42-.25,1.81-.84,1.79-2.24C148.49,50.89,148.53,45.23,148.53,39.56Z"/><path class="cls-1" d="M131.59,111.68c.21-.09.32-.11.36-.17,4.14-5.89,12.07-4.15,15.83-.07,6.63,7.19,3.74,20.85-5.28,24-8,2.77-17.35-1.12-17.55-11.93-.14-7.12,0-14.24-.07-21.36,0-1.06.34-1.4,1.37-1.34a32.29,32.29,0,0,0,3.81,0c1.16-.08,1.58.32,1.55,1.5-.07,2.66,0,5.34,0,8Zm.18,10.32c0,.75.06,1.5.15,2.24.41,3.62,2.44,5.85,5.51,6.09,3.47.27,5.79-1.37,6.64-4.87a13.83,13.83,0,0,0-.47-8.27,5.84,5.84,0,0,0-9.61-1.92A8.69,8.69,0,0,0,131.77,122Z"/><path class="cls-1" d="M215.41,120.31c1.52-1.91,2.81-3.61,4.18-5.25,1.2-1.44,2.53-2.77,3.74-4.2,2.63-3.12,6.13-2.63,9.88-2.55L222,120.88l11.39,13.47c-1.92,2.19-5.74,2.09-8-.33-2.59-2.77-5-5.74-7.41-8.64-.81-1-1.54-2-2.46-3.21-.06.57-.13.9-.13,1.23,0,3.56-.06,7.12,0,10.67,0,1.28-.4,1.64-1.61,1.55s-2.73,0-4.09-.07a1.46,1.46,0,0,1-1-1,9.16,9.16,0,0,1,0-2.1v-30c0-1.87,0-1.87,1.86-1.88,1.13,0,2.26.06,3.38,0s1.6.38,1.57,1.53c-.08,3.23-.09,6.46-.11,9.69C215.39,114.52,215.41,117.26,215.41,120.31Z"/><path class="cls-1" d="M169.17,118.85c.46-3.09-.75-4.75-3.59-5.26a15.88,15.88,0,0,0-8.17.77c-.43.15-.86.28-1.29.42-1.23-3.21-.48-5,2.51-6.16a15.61,15.61,0,0,1,11,0,8.73,8.73,0,0,1,6,7.5,59.85,59.85,0,0,1,.25,11.74c-.38,4.36-3.33,7.21-7.67,8-3.8.69-7.59.6-11.07-1.42a7.86,7.86,0,0,1-4-8.9,6.87,6.87,0,0,1,5-5.24,58.9,58.9,0,0,1,7.85-1.41A23.7,23.7,0,0,1,169.17,118.85Zm-2.66,4.78c-1.16.14-2.32.25-3.48.41a4.52,4.52,0,0,0-1.06.34,3,3,0,0,0-1.19,4.79c1.6,1.81,3.78,1.68,5.88,1.29,1.8-.34,2.5-1.73,2.72-3.47C169.78,123.75,169.76,123.69,166.51,123.63Z"/><path class="cls-1" d="M88.43,124.8a5.75,5.75,0,0,0,2.31,4.09c2.33,1.78,5,2,7.79,1.58,1.46-.2,2.9-.63,4.58-1,0,1.46.09,2.9,0,4.31,0,.41-.65.94-1.11,1.11-5.12,1.84-10.16,1.9-14.8-1.27s-6.19-7.57-5.72-12.93a15,15,0,0,1,3.39-8.75c4.94-5.79,14.49-5.91,19-.24a10,10,0,0,1,2.11,7.37,4.88,4.88,0,0,1-4.08,4.61,85.15,85.15,0,0,1-8.9,1.1C91.49,124.91,90,124.8,88.43,124.8Zm4-4.5v.08c1.44-.13,2.89-.23,4.33-.4,1.27-.15,2.42-.55,2.73-2a3.73,3.73,0,0,0-1.73-3.73,6.44,6.44,0,0,0-6.33-.21,6.25,6.25,0,0,0-3.24,5.12c-.1.75.18,1.16,1,1.15C90.29,120.29,91.37,120.3,92.45,120.3Z"/><path class="cls-1" d="M186.55,126.59c0,2.53,0,5.06,0,7.58,0,1.08-.34,1.52-1.47,1.45-1.4-.08-2.82,0-4.22,0-.73,0-1-.28-1-1,0-5.48-.15-11,.06-16.42a10.77,10.77,0,0,1,9.46-10.3c4.63-.75,8.79.14,12,3.87a12,12,0,0,1,2.65,8c.07,4.77,0,9.55,0,14.32,0,1.24-.39,1.68-1.63,1.58a24.84,24.84,0,0,0-3.66,0c-1.17.09-1.56-.36-1.55-1.5,0-4.22,0-8.43,0-12.64a21.06,21.06,0,0,0-.2-3.64c-.57-3.06-2.63-4.49-5.92-4.28-2.55.17-4.4,2.13-4.51,5-.11,2.66,0,5.33,0,8Z"/><path class="cls-1" d="M60.29,126.45c0,2.67,0,5.34,0,8,0,.84-.26,1.19-1.13,1.16-1.41,0-2.82-.06-4.23,0-1.06,0-1.37-.35-1.36-1.38,0-4.63,0-9.27,0-13.9a12.76,12.76,0,0,0-.21-2.23c-.69-3.58-3.23-5.24-6.79-4.46-2.23.48-3.75,2.78-3.78,5.92,0,4.73,0,9.46,0,14.19,0,1.84,0,1.84-1.83,1.84-1.22,0-2.44,0-3.66,0-.8,0-1.21-.2-1.2-1.1,0-5.38-.11-10.77.07-16.15a10.93,10.93,0,0,1,10.06-10.5,17.89,17.89,0,0,1,5.42.26,10.85,10.85,0,0,1,8.61,10.6c.06,2.58,0,5.15,0,7.73Z"/><path class="cls-1" d="M80.56,129.72c.78,3.67.29,5.5-3.41,6.16-5.87,1-12.28-1.36-12.28-9.68,0-8,0-16.09-.06-24.14,0-1.19.37-1.57,1.53-1.5,1.4.08,2.81,0,4.22,0,.9,0,1.27.35,1.25,1.25,0,1.5,0,3,0,4.49,0,.91.28,1.25,1.21,1.22,2.21,0,4.42,0,6.62,0,1.06,0,1.5.26,1.51,1.4,0,3.33-1.26,4.71-4.61,4.73-1.27,0-2.53,0-3.8,0-.8,0-1.21.18-1.2,1.09,0,3.74,0,7.48,0,11.23.06,2.72,1.54,4.14,4.26,4.12C77.41,130.06,79,129.84,80.56,129.72Z"/><path class="cls-1" d="M31.24,118.12c0,5.33,0,10.66,0,16,0,1.17-.35,1.59-1.52,1.51a28.35,28.35,0,0,0-3.8,0c-1.16.09-1.42-.4-1.41-1.46,0-4,0-8,0-12.07,0-6.64,0-13.28,0-19.92,0-1.21.33-1.71,1.58-1.62a21.77,21.77,0,0,0,3.52,0c1.35-.12,1.64.48,1.63,1.71C31.21,107.55,31.24,112.83,31.24,118.12Z"/><path class="cls-1" d="M109.13,125.77c0-3.45-.42-7,.09-10.34,1-6.73,7.27-8.48,11.75-7.61,1.14.22,1.79.74,1.6,2a5.45,5.45,0,0,0,0,.7c0,2.84,0,2.84-2.85,3.09a4.1,4.1,0,0,0-3.9,4.35c-.12,4.35,0,8.7-.11,13,0,1.48.35,3.43-.43,4.29s-2.72.26-4.17.31a7.82,7.82,0,0,0-.84,0c-1.12.15-1.46-.32-1.44-1.42.07-2.8,0-5.61,0-8.42Z"/></svg>