<svg id="Capa_1" data-name="Capa 1" xmlns="http://www.w3.org/2000/svg" fill="blue" viewBox="0 0 256 155.52"><defs><style></style></defs><title>listo</title><path class="cls-1" d="M119.73,79.19l36-35.95c6.79-6.79,13.58-13.61,20.39-20.39s16-7.23,22.37-1.18S204.67,37.16,198,44c-9.93,10.2-20.09,20.17-30.15,30.24l-39.46,39.46c-6.06,6.05-11.09,6.07-17.06.1Q94.89,97.45,78.49,81c-6.59-6.6-6.88-16.25-.73-22.36s15.52-5.78,22.09.66c3.3,3.24,6.54,6.53,9.81,9.8Z"/><path class="cls-1" d="M120.19,135.47a57,57,0,0,0,57-56.14c0-1.86.19-3.73.35-5.59.19-2.24,1.1-3.83,3.64-3.89,2.69-.07,3.82,1.5,4,3.93A61.35,61.35,0,0,1,180.84,102c-11,27.2-37.83,43.8-66.51,41.09A65.49,65.49,0,0,1,55.79,89.45c-4.67-25.18,6.92-52,28.43-65.9,22.64-14.61,51.6-14.32,73,.73,1,.72,2.37,1.43,2.74,2.44.49,1.35.74,3.4,0,4.4s-2.76,1.57-4.14,1.44-2.63-1.31-3.88-2.12C131.84,17.56,111.09,17,90.79,29,70.23,41.2,61.18,60.26,63.11,84,65.44,112.74,91.12,135.57,120.19,135.47Z"/></svg>