<svg id="Capa_1" data-name="Capa 1" xmlns="http://www.w3.org/2000/svg" viewBox="0 0 256 155.52"><defs><style>.cls-1{fill:#fff;}</style></defs><title>scotiabank</title><path class="cls-1" d="M166.46,83.85v-25h6.11v8.62l.65-.38c3.19-1.77,6.4-2,9.53.08a8.32,8.32,0,0,1,3.62,6.52,11.49,11.49,0,0,1-.92,5.89,8,8,0,0,1-8.19,4.67,7.66,7.66,0,0,1-4.63-1.87,1.72,1.72,0,0,0-.24-.12l-.14,1.59Zm13.64-8.78c-.08-.55-.11-1.06-.23-1.55a3.72,3.72,0,0,0-3.53-3.06,3.78,3.78,0,0,0-3.65,3,6.18,6.18,0,0,0-.07,3,3.66,3.66,0,0,0,7.19.28A16.08,16.08,0,0,0,180.1,75.07Z"/><path class="cls-1" d="M10.24,71.6A9.68,9.68,0,0,1,9,68.4c-.77-3.79-.64-7.49,1.31-10.94a15.15,15.15,0,0,1,10.86-7.84,10,10,0,0,1,1.73-.14H46.26c-.14.17-.22.29-.32.39-2.75,2.77-5.5,5.55-8.27,8.31a1.19,1.19,0,0,1-.77.3c-4.47,0-8.94.08-13.41,0-5.81-.12-12.07,4.93-13.08,11.34C10.32,70.35,10.3,70.91,10.24,71.6Z"/><path class="cls-1" d="M1.53,94.31l.35-.37L10,85.85a1,1,0,0,1,.83-.33c4.41,0,8.83,0,13.24,0a12.37,12.37,0,0,0,8.41-3.14,13.33,13.33,0,0,0,4.84-8.63c.06-.42.08-.85.12-1.43a9.2,9.2,0,0,1,1.18,2.93c1,4.44.62,8.67-2,12.5a15,15,0,0,1-9.76,6.47,13.15,13.15,0,0,1-2.51.2H1.57Z"/><path class="cls-1" d="M59.37,83.19l.6-5.71.56.25a16.07,16.07,0,0,0,4.78,1.52A7,7,0,0,0,68.58,79a2,2,0,0,0,.63-3.56A15,15,0,0,0,66.42,74c-1.38-.63-2.83-1.12-4.17-1.83-4.34-2.32-4.11-8.56,0-10.89a12.86,12.86,0,0,1,5.38-1.6,22.71,22.71,0,0,1,7.57.58c.39.1.58.24.53.7-.18,1.6-.3,3.2-.46,4.86-.62-.2-1.21-.41-1.8-.59a12.17,12.17,0,0,0-4.86-.67A4.49,4.49,0,0,0,67,65a1.52,1.52,0,0,0-.22,2.69,23.2,23.2,0,0,0,3,1.41c1.22.53,2.48,1,3.66,1.58A6.13,6.13,0,0,1,77,75.26a6.82,6.82,0,0,1-4.32,7.91,14,14,0,0,1-4.49,1,25.19,25.19,0,0,1-8.33-.81l-.3-.09Z"/><path class="cls-1" d="M209,83.87h-6L202.88,82c-.22.17-.35.27-.47.38a7.93,7.93,0,0,1-6.21,1.85c-3.41-.21-6.44-2.9-7.24-7a10.45,10.45,0,0,1,1-7.37,7.79,7.79,0,0,1,6.84-4.17,7.39,7.39,0,0,1,5.71,1.9c.05,0,.12.06.26.14,0-.41.09-.76.09-1.11s.13-.55.55-.55c1.68,0,3.36,0,5.05,0,.38,0,.51.11.5.5,0,2.51,0,5,0,7.51v9.73Zm-9.92-4.22a3.62,3.62,0,0,0,3.21-2.06,5.36,5.36,0,0,0,.25-4.61,3.63,3.63,0,0,0-7,0,5.69,5.69,0,0,0,.36,4.67A3.45,3.45,0,0,0,199.07,79.65Z"/><path class="cls-1" d="M156.19,67.79l.13-1.64h.86c1.54,0,3.09,0,4.63,0,.4,0,.55.12.55.54q0,8.34,0,16.7c0,.23.07.52-.33.52-1.86,0-3.71,0-5.63,0l-.1-1.83a3.78,3.78,0,0,0-.4.25,8.08,8.08,0,0,1-12.9-3,10.08,10.08,0,0,1,1.41-10.81,8.36,8.36,0,0,1,11.52-.84A1.59,1.59,0,0,0,156.19,67.79Zm-7.57,7.12a5.75,5.75,0,0,0,.81,3,3.46,3.46,0,0,0,5.53.59,5.44,5.44,0,0,0,.42-6.6,3.55,3.55,0,0,0-5.88,0A4.8,4.8,0,0,0,148.62,74.91Z"/><path class="cls-1" d="M241.66,75.76v.61c0,2.32,0,4.63,0,6.94,0,.44-.09.61-.58.6-1.82,0-3.64,0-5.5,0v-25h6.06V73.42l.15,0c.12-.16.25-.31.36-.47,1.57-2.15,3.13-4.31,4.7-6.45a.8.8,0,0,1,.52-.36c2.13,0,4.27,0,6.55,0l-6.44,8.31c2.19,3.11,4.36,6.22,6.58,9.38-.18,0-.31,0-.43,0-2,0-3.93,0-5.89,0a.75.75,0,0,1-.72-.4l-4.86-7.3-.36-.5Z"/><path class="cls-1" d="M105.94,84.27c-3.35,0-6-.73-8.17-2.79a8.69,8.69,0,0,1-2.6-7.15c.28-4.68,3.85-7.83,8.32-8.48a12.46,12.46,0,0,1,6.75.76,9.11,9.11,0,0,1-2,17.38C107.34,84.16,106.41,84.22,105.94,84.27Zm-4.6-9.36a7.31,7.31,0,0,0,.76,2.86,3.64,3.64,0,0,0,3.38,2.09,3.54,3.54,0,0,0,3.41-2.12,6,6,0,0,0,0-5.6,3.56,3.56,0,0,0-3.66-2,3.49,3.49,0,0,0-3.28,2.38A19.42,19.42,0,0,0,101.34,74.91Z"/><path class="cls-1" d="M213.09,66.2h5.4v2l.75-.6a7.6,7.6,0,0,1,8.29-1.26,6.53,6.53,0,0,1,4,5.3,7.13,7.13,0,0,1,.11,1.3q0,5.27,0,10.51a2.6,2.6,0,0,1,0,.35h-5.94v-.59c0-2.82,0-5.64,0-8.46a6.53,6.53,0,0,0-.16-1.4A3,3,0,0,0,222,71.08a3.31,3.31,0,0,0-2.85,3c0,.4-.06.81-.07,1.21v8.59h-5.94Z"/><path class="cls-1" d="M119.51,60.42h6.11c0,.23,0,.44,0,.64,0,1.51,0,3,0,4.52,0,.43.11.59.55.57.91,0,1.82,0,2.74,0l.59,0v4.37h-3.84c0,.21,0,.38,0,.55q0,2.7,0,5.4a4.85,4.85,0,0,0,.06.94,2.51,2.51,0,0,0,3.06,1.95c.38-.06.76-.14,1.2-.23-.19,1.23-.37,2.41-.56,3.59a.36.36,0,0,1,0,.1c-.21,1.15-.2,1.21-1.41,1.26a20,20,0,0,1-4-.06,5,5,0,0,1-4.32-4.75c-.16-1.67-.11-3.35-.14-5,0-1.21,0-2.41,0-3.68h-2.69V66.14c.67,0,1.34,0,2,0,.52,0,.7-.12.68-.67,0-1.48,0-3,0-4.46Z"/><path class="cls-1" d="M93.18,71.42c-.62-.21-1.16-.44-1.73-.59a4.39,4.39,0,0,0-5.51,2.67A4.23,4.23,0,0,0,86.87,78,4.42,4.42,0,0,0,91.58,79c.53-.16,1-.39,1.6-.6.1,1.62.2,3.21.29,4.8a.4.4,0,0,1-.23.33C89.56,84.62,86,84.74,82.73,82.3a8.67,8.67,0,0,1-3.39-6.66,9.72,9.72,0,0,1,.58-4.17,8.63,8.63,0,0,1,7.1-5.6,13.41,13.41,0,0,1,6.07.41c.23.07.42.11.39.44C93.37,68.27,93.28,69.82,93.18,71.42Z"/><path class="cls-1" d="M139.21,83.88h-6.08V66.19h6.08Z"/><path class="cls-1" d="M28.72,72.63a17.61,17.61,0,0,1-.89,4.72.48.48,0,0,1-.39.24c-2.4,0-4.8,0-7.2,0a.48.48,0,0,1-.36-.18,19.76,19.76,0,0,1-.94-4.78Z"/><path class="cls-1" d="M18.81,71.46c.35-1.61.68-3.14,1-4.67a.52.52,0,0,1,.4-.28q3.59,0,7.19,0a.48.48,0,0,1,.39.24,17.86,17.86,0,0,1,.89,4.71Z"/><path class="cls-1" d="M139.6,60.55a3.44,3.44,0,1,1-6.88,0,3.44,3.44,0,0,1,6.88,0Z"/><path class="cls-1" d="M18.59,77.6H16.3c-1,0-2.06,0-3.1,0-.16,0-.42-.07-.48-.19a12.45,12.45,0,0,1-1.33-4.78h6.32Z"/><path class="cls-1" d="M36.27,72.64a8.77,8.77,0,0,1-.51,2.88A17.23,17.23,0,0,1,35,77.31a.55.55,0,0,1-.37.28c-1.85,0-3.71,0-5.52,0l.85-5Z"/><path class="cls-1" d="M18.57,66.5l-.87,5H11.39a12.28,12.28,0,0,1,1.33-4.75.43.43,0,0,1,.32-.2Z"/><path class="cls-1" d="M34.9,66.54a10.81,10.81,0,0,1,1.38,4.93H30l-.81-4.93Z"/><path class="cls-1" d="M23.27,84.31a12.16,12.16,0,0,1-9.83-5.62h2.44c1,0,1.93,0,2.89,0a.57.57,0,0,1,.47.26,14.25,14.25,0,0,0,3.87,5.16S23.17,84.2,23.27,84.31Z"/><path class="cls-1" d="M24.46,84.28a16.4,16.4,0,0,0,4-5.36.5.5,0,0,1,.4-.22c1.71,0,3.43,0,5.15,0C33.2,81.35,28.06,84.39,24.46,84.28Z"/><path class="cls-1" d="M23.14,59.68c-.77.85-1.61,1.65-2.29,2.57a30.37,30.37,0,0,0-1.56,2.66c-.09.15-.28.34-.42.35-1.74,0-3.47,0-5.21,0,0,0-.05,0-.08,0C14.67,62.54,19.69,59.64,23.14,59.68Z"/><path class="cls-1" d="M24.55,59.71c3-.3,8.21,2.71,9.47,5.53-.13,0-.24,0-.36,0-1.56,0-3.12,0-4.68,0a.77.77,0,0,1-.55-.33,15.37,15.37,0,0,0-3.85-5.13S24.56,59.74,24.55,59.71Z"/><path class="cls-1" d="M23.85,83.27a16.24,16.24,0,0,1-3.43-4.54h6.85A16,16,0,0,1,23.85,83.27Z"/><path class="cls-1" d="M20.42,65.23a15.55,15.55,0,0,1,3.44-4.42,15.47,15.47,0,0,1,3.41,4.42Z"/></svg>